<?xml version="1.0" encoding="UTF-8"?>
<svg xmlns="http://www.w3.org/2000/svg" xmlns:xlink="http://www.w3.org/1999/xlink" version="1.2" >
<font id="Ekibastuz Bold">
<font-face  font-family="Ekibastuz" units-per-em="1000" ascent="750" descent="-200" font-style="normal" font-weight="700" font-stretch="normal" cap-height="700" x-height="500" underline-position="-75" underline-thickness="50" />
<missing-glyph  horiz-adv-x="360" d="" />
<glyph glyph-name="NULL" d="" />
<glyph glyph-name="CR" unicode="&#xd;" horiz-adv-x="360" d="" />
<glyph glyph-name="space" unicode="&#x20;" horiz-adv-x="260" d="" />
<glyph glyph-name="exclam" unicode="&#x21;" horiz-adv-x="256" d="M68 700 L84 197 L172 197 L188 700 L68 700 Z M67 134 L67 0 L188 0 L188 134 L67 134 Z " />
<glyph glyph-name="quotedbl" unicode="&#x22;" horiz-adv-x="413" d="M75 700 L85 470 L170 470 L180 700 L75 700 Z M233 700 L243 470 L328 470 L338 700 L233 700 Z " />
<glyph glyph-name="numbersign" unicode="&#x23;" horiz-adv-x="673" d="M78 463 L188 463 L144 237 L78 237 L78 153 L127 153 L98 0 L195 0 L225 153 L372 153 L343 0 L440 0 L470 153 L594 153 L594 237 L486 237 L530 463 L594 463 L594 547 L547 547 L577 700 L479 700 L449 547 L302 547 L332 700 L234 700 L204 547 L78 547 L78 463 Z M285 463 L433 463 L389 237 L241 237 L285 463 Z " />
<glyph glyph-name="dollar" unicode="&#x24;" horiz-adv-x="610" d="M272 730 L272 670 C150 666 47 613 47 488 C47 360 158 314 272 292 L272 75 C199 77 116 89 61 113 L46 30 C106 2 200 -9 272 -10 L272 -80 L342 -80 L342 -9 C460 -5 565 50 565 165 C565 311 466 354 342 379 L342 590 C417 588 477 572 532 553 L548 633 C483 653 419 668 342 670 L342 730 L272 730 Z M473 173 C473 151 469 80 342 75 L342 281 C409 262 473 257 473 173 L473 173 Z M141 489 C141 535 173 585 272 589 L272 390 C212 406 141 423 141 489 L141 489 Z " />
<glyph glyph-name="ampersand" unicode="&#x26;" horiz-adv-x="782" d="M559 665 C520 684 448 710 372 710 C246 710 152 656 152 544 C152 486 187 438 216 401 C141 366 75 313 75 186 C75 43 197 -10 320 -10 C418 -10 470 19 508 53 L553 0 L669 0 L579 106 C618 141 663 215 671 287 L578 299 C570 258 553 205 525 167 L308 430 C290 452 257 500 257 544 C257 621 333 626 395 626 C447 626 503 600 538 583 L559 665 Z M325 55 C246 55 181 103 181 186 C181 283 244 331 266 343 L463 106 C429 74 371 55 325 55 L325 55 Z " />
<glyph glyph-name="quotesingle" unicode="&#x27;" horiz-adv-x="261" d="M78 700 L88 470 L173 470 L183 700 L78 700 Z " />
<glyph glyph-name="parenleft" unicode="&#x28;" horiz-adv-x="421" d="M81 325 C81 123 167 -34 235 -144 L334 -132 C306 -86 187 88 187 325 C187 542 283 711 329 784 L233 796 C167 684 81 523 81 325 L81 325 Z " />
<glyph glyph-name="parenright" unicode="&#x29;" horiz-adv-x="421" d="M334 325 C334 523 248 684 182 796 L85 784 C131 711 228 542 228 325 C228 88 111 -86 81 -132 L179 -144 C247 -34 334 123 334 325 L334 325 Z " />
<glyph glyph-name="asterisk" unicode="&#x2a;" horiz-adv-x="694" d="M78 566 L268 470 L78 374 L118 296 L311 412 L303 200 L391 200 L384 413 L576 296 L616 374 L426 470 L616 566 L576 644 L384 527 L391 740 L303 740 L311 527 L118 644 L78 566 Z " />
<glyph glyph-name="plus" unicode="&#x2b;" horiz-adv-x="656" d="M281 595 L281 392 L78 392 L78 307 L281 307 L281 104 L375 104 L375 307 L578 307 L578 392 L375 392 L375 595 L281 595 Z " />
<glyph glyph-name="comma" unicode="&#x2c;" horiz-adv-x="271" d="M75 134 L75 0 L119 0 C119 -48 101 -99 79 -136 L118 -154 C154 -109 196 -35 196 52 L196 134 L75 134 Z " />
<glyph glyph-name="hyphen" unicode="&#x2d;" horiz-adv-x="456" d="M78 283 L378 283 L378 368 L78 368 L78 283 Z " />
<glyph glyph-name="period" unicode="&#x2e;" horiz-adv-x="271" d="M75 134 L75 0 L196 0 L196 134 L75 134 Z " />
<glyph glyph-name="slash" unicode="&#x2f;" horiz-adv-x="581" d="M518 715 L411 715 L63 -78 L169 -78 L518 715 Z " />
<glyph glyph-name="zero" unicode="0" horiz-adv-x="658" d="M41 282 C41 101 147 -10 329 -10 C511 -10 617 103 617 282 L617 416 C617 596 510 710 329 710 C148 710 41 595 41 415 L41 282 Z M329 619 C447 619 508 537 508 420 L508 279 C508 156 447 81 329 81 C211 81 150 156 150 279 L150 421 C150 537 211 619 329 619 L329 619 Z " />
<glyph glyph-name="one" unicode="1" horiz-adv-x="658" d="M153 447 L186 359 L399 572 L399 0 L505 0 L505 700 L411 700 L153 447 Z " />
<glyph glyph-name="two" unicode="2" horiz-adv-x="658" d="M322 710 C230 710 127 679 83 662 L99 578 C155 600 263 624 317 624 C419 624 477 583 477 522 C477 444 352 395 285 358 C156 287 70 239 70 36 L70 0 L587 0 L587 87 L176 87 C176 207 261 239 348 287 C439 337 582 398 582 532 C582 662 473 710 322 710 L322 710 Z " />
<glyph glyph-name="three" unicode="3" horiz-adv-x="658" d="M63 21 C81 14 198 -10 283 -10 C453 -10 594 28 594 188 C594 316 513 359 418 386 C493 406 553 464 553 544 C553 679 424 710 293 710 C200 710 115 694 76 681 L96 599 C138 616 245 625 295 625 C387 625 448 596 448 524 C448 447 371 407 295 407 L187 407 L200 328 L283 328 C348 328 488 328 488 197 C488 100 396 75 289 75 C205 75 120 97 88 106 L63 21 Z " />
<glyph glyph-name="four" unicode="4" horiz-adv-x="658" d="M406 700 L59 271 L59 192 L417 192 L417 0 L523 0 L523 192 L585 192 L599 275 L523 275 L523 700 L406 700 Z M416 592 L416 275 L162 275 L416 592 Z " />
<glyph glyph-name="five" unicode="5" horiz-adv-x="658" d="M63 28 C84 20 217 -10 327 -10 C477 -10 595 41 595 226 C595 391 496 441 386 441 C319 441 255 432 206 417 L228 617 L565 617 L572 700 L139 700 L105 324 C158 335 265 352 340 352 C404 352 486 335 486 225 C486 106 422 79 321 79 C232 79 109 108 77 117 L63 28 Z " />
<glyph glyph-name="six" unicode="6" horiz-adv-x="658" d="M51 274 C51 53 179 -10 334 -10 C504 -10 607 82 607 219 C607 390 496 447 358 447 C253 447 191 411 159 390 L159 443 C159 558 241 628 350 628 C421 628 515 614 557 598 L577 676 C536 689 448 710 340 710 C198 710 51 631 51 418 L51 274 Z M159 311 C199 333 271 362 339 362 C429 362 498 322 498 219 C498 119 424 66 329 66 C225 66 159 128 159 262 L159 311 Z " />
<glyph glyph-name="seven" unicode="7" horiz-adv-x="658" d="M315 0 C315 331 476 543 598 636 L598 700 L59 700 L59 609 L463 609 C359 523 205 313 205 0 L315 0 Z " />
<glyph glyph-name="eight" unicode="8" horiz-adv-x="658" d="M231 375 C142 350 41 310 41 191 C41 43 154 -10 329 -10 C504 -10 617 43 617 191 C617 301 514 349 412 375 C496 397 587 441 587 539 C587 645 491 710 329 710 C167 710 71 645 71 539 C71 438 171 394 231 375 L231 375 Z M310 329 C398 302 506 282 506 198 C506 103 439 71 329 71 C218 71 152 103 152 198 C152 275 225 307 310 329 L310 329 Z M329 634 C432 634 485 590 485 533 C485 464 385 425 336 408 C281 426 173 461 173 533 C173 590 226 634 329 634 L329 634 Z " />
<glyph glyph-name="nine" unicode="9" horiz-adv-x="658" d="M607 426 C607 647 478 710 324 710 C153 710 51 618 51 481 C51 319 152 251 292 251 C368 251 464 279 498 300 L498 258 C498 141 415 72 308 72 C237 72 142 87 100 103 L80 24 C121 13 221 -10 317 -10 C459 -10 607 69 607 282 L607 426 Z M498 379 C458 357 370 338 318 338 C232 338 159 378 159 481 C159 581 233 635 328 635 C427 635 490 581 498 451 L498 379 Z " />
<glyph glyph-name="colon" unicode="&#x3a;" horiz-adv-x="271" d="M75 502 L75 368 L196 368 L196 502 L75 502 Z M75 134 L75 0 L196 0 L196 134 L75 134 Z " />
<glyph glyph-name="semicolon" unicode="&#x3b;" horiz-adv-x="271" d="M75 502 L75 368 L196 368 L196 502 L75 502 Z M75 134 L75 0 L119 0 C119 -48 101 -99 79 -136 L118 -154 C154 -109 196 -35 196 52 L196 134 L75 134 Z " />
<glyph glyph-name="less" unicode="&#x3c;" horiz-adv-x="629" d="M78 220 L534 4 L534 91 L193 252 L534 411 L534 499 L78 282 L78 220 Z " />
<glyph glyph-name="equal" unicode="&#x3d;" horiz-adv-x="656" d="M78 228 L578 228 L578 307 L78 307 L78 228 Z M78 392 L578 392 L578 471 L78 471 L78 392 Z " />
<glyph glyph-name="greater" unicode="&#x3e;" horiz-adv-x="629" d="M78 499 L78 411 L419 252 L78 91 L78 4 L534 220 L534 282 L78 499 Z " />
<glyph glyph-name="question" unicode="&#x3f;" horiz-adv-x="547" d="M62 599 C85 606 173 618 216 618 C309 618 363 611 363 507 C363 440 318 413 267 388 C213 361 169 330 169 263 L169 187 L263 187 L263 257 C263 299 296 318 326 334 C387 366 469 389 469 529 C469 668 341 710 216 710 C158 710 68 695 51 690 L62 599 Z M155 134 L155 0 L276 0 L276 134 L155 134 Z " />
<glyph glyph-name="at" unicode="&#x40;" horiz-adv-x="1115" d="M558 710 C254 710 75 575 75 249 C75 -91 254 -213 558 -213 C742 -213 908 -158 997 -118 L976 -46 C894 -79 732 -132 558 -132 C306 -132 184 -37 184 249 C184 521 310 632 558 632 C833 632 931 551 931 304 C931 104 850 65 762 62 L762 483 C720 491 642 510 558 510 C406 510 325 419 325 238 C325 73 392 -10 520 -10 C575 -10 635 24 669 47 L669 0 L750 0 C939 0 1040 109 1040 304 C1040 594 877 710 558 710 L558 710 Z M550 57 C486 57 425 86 425 241 C426 416 496 446 563 446 C613 446 638 438 662 432 L662 98 C641 85 595 57 550 57 L550 57 Z " />
<glyph glyph-name="A" unicode="A" horiz-adv-x="652" d="M515 0 L627 0 L393 700 L261 700 L25 0 L137 0 L197 190 L455 190 L515 0 Z M328 604 L434 273 L218 273 L328 604 Z " />
<glyph glyph-name="B" unicode="B" horiz-adv-x="592" d="M78 0 L332 0 C502 0 548 82 548 203 C548 307 500 360 431 385 C483 404 514 454 514 533 C514 653 442 700 339 700 L78 700 L78 0 Z M184 329 L308 329 C371 329 443 304 443 206 C443 107 392 77 308 77 L184 77 L184 329 Z M315 623 C377 623 409 586 409 524 C409 431 357 406 315 406 L184 406 L184 623 L315 623 Z " />
<glyph glyph-name="C" unicode="C" horiz-adv-x="559" d="M497 103 C447 87 381 68 329 68 C200 68 152 158 152 272 L152 427 C152 552 204 632 329 632 C381 632 444 616 494 597 L515 672 C465 692 395 710 329 710 C142 710 44 612 44 428 L44 272 C44 87 142 -10 329 -10 C395 -10 465 11 515 28 L497 103 Z " />
<glyph glyph-name="D" unicode="D" horiz-adv-x="683" d="M78 0 L316 0 C520 0 639 66 639 350 C639 634 521 700 316 700 L78 700 L78 0 Z M316 624 C431 624 531 590 531 350 C531 113 431 76 316 76 L184 76 L184 624 L316 624 Z " />
<glyph glyph-name="E" unicode="E" horiz-adv-x="555" d="M184 333 L465 333 L465 412 L184 412 L184 619 L511 619 L511 700 L78 700 L78 0 L511 0 L511 81 L184 81 L184 333 Z " />
<glyph glyph-name="F" unicode="F" horiz-adv-x="552" d="M184 308 L465 308 L465 389 L184 389 L184 619 L511 619 L511 700 L78 700 L78 0 L184 0 L184 308 Z " />
<glyph glyph-name="G" unicode="G" horiz-adv-x="612" d="M568 30 L568 376 L327 376 L327 297 L462 291 L462 82 C411 68 378 64 336 64 C206 64 152 140 152 263 L152 422 C152 554 206 627 346 627 C404 627 469 621 532 600 L553 679 C483 701 409 710 336 710 C142 710 44 614 44 430 L44 268 C44 84 142 -10 336 -10 C414 -10 495 3 568 30 L568 30 Z " />
<glyph glyph-name="H" unicode="H" horiz-adv-x="713" d="M529 700 L529 418 L184 418 L184 700 L78 700 L78 0 L184 0 L184 337 L529 337 L529 0 L635 0 L635 700 L529 700 Z " />
<glyph glyph-name="I" unicode="I" horiz-adv-x="388" d="M30 629 L139 629 L139 71 L33 71 L33 0 L358 0 L358 71 L245 71 L245 629 L355 629 L355 700 L30 700 L30 629 Z " />
<glyph glyph-name="J" unicode="J" horiz-adv-x="486" d="M163 -10 C360 -10 408 94 408 229 L408 700 L302 700 L302 228 C302 146 280 65 145 65 C108 65 57 85 30 99 L13 18 C49 2 98 -10 163 -10 L163 -10 Z " />
<glyph glyph-name="K" unicode="K" horiz-adv-x="631" d="M184 700 L78 700 L78 0 L184 0 L184 354 L198 354 L496 0 L620 0 L300 379 L617 700 L488 700 L197 393 L184 393 L184 700 Z " />
<glyph glyph-name="L" unicode="L" horiz-adv-x="572" d="M78 0 L531 0 L531 81 L184 81 L184 700 L78 700 L78 0 Z " />
<glyph glyph-name="M" unicode="M" horiz-adv-x="917" d="M199 563 L403 0 L513 0 L718 563 L756 0 L859 0 L800 700 L675 700 L459 96 L241 700 L117 700 L58 0 L161 0 L199 563 Z " />
<glyph glyph-name="N" unicode="N" horiz-adv-x="760" d="M581 700 L581 150 L190 700 L78 700 L78 0 L178 0 L178 553 L572 0 L682 0 L682 700 L581 700 Z " />
<glyph glyph-name="O" unicode="O" horiz-adv-x="708" d="M44 266 C44 104 154 -10 354 -10 C554 -10 664 104 664 266 L664 431 C664 593 553 710 354 710 C155 710 44 593 44 431 L44 266 Z M153 440 C153 560 233 630 354 630 C487 630 555 553 555 440 L555 259 C555 137 487 70 354 70 C228 70 153 137 153 259 L153 440 Z " />
<glyph glyph-name="P" unicode="P" horiz-adv-x="604" d="M78 700 L78 0 L184 0 L184 241 L305 241 C480 241 560 304 560 477 C560 650 480 700 305 700 L78 700 Z M184 624 L305 624 C397 624 452 589 452 477 C452 343 382 317 305 317 L184 317 L184 624 Z " />
<glyph glyph-name="Q" unicode="Q" horiz-adv-x="708" d="M44 266 C44 104 154 -10 354 -10 C380 -10 405 -8 428 -4 L503 -172 L605 -172 L517 23 C613 68 664 155 664 266 L664 431 C664 593 553 710 354 710 C155 710 44 593 44 431 L44 266 Z M153 445 C153 565 233 635 354 635 C487 635 555 558 555 445 L555 265 C555 190 529 134 480 100 L397 292 L295 292 L394 67 C382 66 367 65 354 65 C228 65 153 142 153 264 L153 445 Z " />
<glyph glyph-name="R" unicode="R" horiz-adv-x="637" d="M506 0 L626 0 L428 282 C512 285 577 359 577 485 C577 639 501 700 322 700 L78 700 L78 0 L184 0 L184 280 L320 280 L506 0 Z M184 624 L325 624 C417 624 469 589 469 485 C469 380 416 356 325 356 L184 356 L184 624 Z " />
<glyph glyph-name="S" unicode="S" horiz-adv-x="610" d="M309 710 C165 710 47 655 47 524 C47 349 215 334 361 286 C434 262 458 240 458 178 C458 155 451 69 305 69 C230 69 129 87 61 115 L46 35 C115 2 230 -10 305 -10 C449 -10 566 48 566 184 C566 371 412 361 243 430 C191 451 156 482 156 531 C156 581 192 631 309 631 C386 631 464 612 532 588 L548 670 C474 694 402 710 309 710 L309 710 Z " />
<glyph glyph-name="T" unicode="T" horiz-adv-x="558" d="M24 616 L226 616 L226 0 L332 0 L332 616 L534 616 L534 700 L24 700 L24 616 Z " />
<glyph glyph-name="U" unicode="U" horiz-adv-x="653" d="M491 700 L491 238 C491 121 445 69 339 69 C233 69 170 120 170 238 L170 700 L64 700 L64 250 C64 83 151 -10 336 -10 C511 -10 589 83 589 250 L589 700 L491 700 Z " />
<glyph glyph-name="V" unicode="V" horiz-adv-x="619" d="M234 0 L383 0 L609 700 L497 700 L317 81 L306 81 L123 700 L10 700 L234 0 Z " />
<glyph glyph-name="W" unicode="W" horiz-adv-x="986" d="M197 0 L317 0 L486 579 L659 0 L779 0 L976 700 L857 700 L715 95 L541 700 L437 700 L265 94 L122 700 L10 700 L197 0 Z " />
<glyph glyph-name="X" unicode="X" horiz-adv-x="632" d="M141 700 L10 700 L252 350 L10 0 L137 0 L304 284 L491 0 L622 0 L379 350 L622 700 L495 700 L329 414 L141 700 Z " />
<glyph glyph-name="Y" unicode="Y" horiz-adv-x="613" d="M254 261 L254 0 L360 0 L360 261 L603 700 L486 700 L312 332 L130 700 L10 700 L254 261 Z " />
<glyph glyph-name="Z" unicode="Z" horiz-adv-x="606" d="M48 615 L434 615 L41 75 L41 0 L565 0 L565 85 L169 85 L559 625 L559 700 L48 700 L48 615 Z " />
<glyph glyph-name="bracketleft" unicode="&#x5b;" horiz-adv-x="398" d="M320 800 L78 800 L78 -140 L320 -140 L320 -54 L184 -54 L184 714 L320 714 L320 800 Z " />
<glyph glyph-name="backslash" unicode="&#x5c;" horiz-adv-x="581" d="M526 -111 L173 722 L66 722 L420 -111 L526 -111 Z " />
<glyph glyph-name="bracketright" unicode="&#x5d;" horiz-adv-x="398" d="M214 714 L214 -54 L78 -54 L78 -140 L320 -140 L320 800 L78 800 L78 714 L214 714 Z " />
<glyph glyph-name="asciicircum" unicode="&#x5e;" horiz-adv-x="691" d="M302 701 L78 285 L179 285 L347 602 L511 285 L613 285 L388 701 L302 701 Z " />
<glyph glyph-name="underscore" unicode="&#x5f;" horiz-adv-x="500" d="M0 -123 L500 -123 L500 -35 L0 -35 L0 -123 Z " />
<glyph glyph-name="grave" unicode="&#x60;" horiz-adv-x="277" d="M175 749 L68 749 L132 550 L202 562 L175 749 Z " />
<glyph glyph-name="a" unicode="a" horiz-adv-x="529" d="M82 414 C122 427 199 443 264 443 C338 443 368 413 368 345 L368 280 L226 280 C114 280 40 238 40 142 C40 41 94 -11 212 -11 C283 -11 340 17 368 37 L368 0 L468 0 L468 329 C468 441 428 510 268 510 C177 510 101 490 69 479 L82 414 Z M251 58 C175 58 143 83 143 143 C143 178 174 216 248 216 L368 216 L368 93 C342 81 289 58 251 58 L251 58 Z " />
<glyph glyph-name="b" unicode="b" horiz-adv-x="563" d="M61 700 L61 0 L161 0 L161 37 C192 20 244 -7 313 -7 C465 -7 525 75 525 250 C525 414 465 509 313 509 C245 509 190 481 161 463 L161 700 L61 700 Z M278 59 C225 59 186 78 161 94 L161 403 C186 417 227 438 278 438 C349 438 423 405 423 250 C423 94 349 59 278 59 L278 59 Z " />
<glyph glyph-name="c" unicode="c" horiz-adv-x="463" d="M431 98 C383 79 344 63 296 63 C196 63 146 113 146 217 L146 282 C146 385 195 436 296 436 C340 436 397 415 430 401 L446 474 C397 496 329 510 280 510 C135 510 40 427 40 288 L40 211 C40 64 136 -10 280 -10 C353 -10 409 7 446 26 L431 98 Z " />
<glyph glyph-name="d" unicode="d" horiz-adv-x="580" d="M419 700 L419 463 C392 482 346 510 273 510 C118 510 55 421 55 250 C55 73 139 -10 271 -10 C345 -10 395 22 419 37 L419 0 L519 0 L519 700 L419 700 Z M301 62 C228 62 157 94 157 250 C157 409 228 438 301 438 C351 438 393 417 419 403 L419 97 C392 81 354 62 301 62 L301 62 Z " />
<glyph glyph-name="e" unicode="e" horiz-adv-x="529" d="M469 98 C412 80 340 64 290 64 C199 64 143 84 143 181 L143 224 L491 224 L491 310 C491 452 399 510 267 510 C108 510 40 425 40 282 L40 186 C40 34 146 -10 281 -10 C352 -10 416 4 480 24 L469 98 Z M143 306 C143 402 181 441 267 441 C351 441 396 407 396 320 L396 283 L143 283 L143 306 Z " />
<glyph glyph-name="f" unicode="f" horiz-adv-x="404" d="M442 730 C418 737 356 750 286 750 C172 750 111 684 111 540 L111 500 L20 500 L20 428 L111 428 L111 0 L211 0 L211 428 L384 428 L384 500 L211 500 C211 626 223 678 311 678 C347 678 399 669 428 662 L442 730 Z " />
<glyph glyph-name="g" unicode="g" horiz-adv-x="564" d="M294 510 C174 510 69 476 69 351 C69 285 101 246 137 225 C120 210 107 190 107 158 C107 132 122 109 136 96 C83 72 45 31 45 -40 C45 -170 152 -200 294 -200 C437 -200 544 -170 544 -40 C544 89 436 119 294 119 C272 119 230 118 211 114 C203 125 196 147 196 159 C196 176 203 198 208 206 C227 202 270 200 294 200 C417 200 520 226 520 351 C520 396 506 425 484 446 C529 463 541 503 542 550 L441 550 C441 516 441 501 436 478 C412 493 368 510 294 510 L294 510 Z M445 -40 C445 -95 418 -137 294 -137 C171 -137 144 -94 144 -40 C144 26 193 55 294 55 C418 55 445 24 445 -40 L445 -40 Z M420 351 C420 286 389 261 294 261 C193 261 168 287 168 351 C168 407 193 448 294 448 C383 448 420 412 420 351 L420 351 Z " />
<glyph glyph-name="h" unicode="h" horiz-adv-x="576" d="M515 0 L515 342 C515 487 444 510 337 510 C249 510 187 469 161 448 L161 700 L61 700 L61 0 L161 0 L161 382 C190 407 250 438 303 438 C388 438 415 404 415 328 L415 0 L515 0 Z " />
<glyph glyph-name="i" unicode="i" horiz-adv-x="222" d="M61 500 L61 0 L161 0 L161 500 L61 500 Z M61 700 L61 583 L161 583 L161 700 L61 700 Z " />
<glyph glyph-name="j" unicode="j" horiz-adv-x="222" d="M-112 -190 C-99 -198 -44 -210 0 -210 C109 -210 161 -155 161 -44 L161 500 L61 500 L61 -34 C61 -112 22 -134 -21 -134 C-43 -134 -83 -122 -96 -118 L-112 -190 Z M61 700 L61 583 L161 583 L161 700 L61 700 Z " />
<glyph glyph-name="k" unicode="k" horiz-adv-x="514" d="M161 700 L61 700 L61 0 L161 0 L161 238 L175 238 L388 0 L506 0 L261 261 L506 500 L382 500 L175 286 L161 286 L161 700 Z " />
<glyph glyph-name="l" unicode="l" horiz-adv-x="222" d="M161 0 L161 750 L61 750 L61 0 L161 0 Z " />
<glyph glyph-name="m" unicode="m" horiz-adv-x="800" d="M450 0 L450 381 C482 407 543 432 575 432 C629 432 642 403 642 346 L642 0 L739 0 L739 359 C739 457 716 510 614 510 C565 510 484 467 440 427 C425 469 399 510 320 510 C270 510 191 458 158 431 L158 500 L61 500 L61 0 L158 0 L158 378 C187 406 245 432 279 432 C333 432 353 402 353 346 L353 0 L450 0 Z " />
<glyph glyph-name="n" unicode="n" horiz-adv-x="576" d="M515 0 L515 331 C515 450 474 510 352 510 C275 510 200 472 161 448 L161 500 L61 500 L61 0 L161 0 L161 382 C189 407 248 438 303 438 C388 438 415 407 415 324 L415 0 L515 0 Z " />
<glyph glyph-name="o" unicode="o" horiz-adv-x="558" d="M37 197 C37 68 124 -10 278 -10 C431 -10 521 68 521 197 L521 302 C521 431 431 510 278 510 C124 510 37 431 37 302 L37 197 Z M137 318 C137 399 189 442 278 442 C371 442 419 401 419 318 L419 189 C419 105 371 57 278 57 C185 57 137 104 137 189 L137 318 Z " />
<glyph glyph-name="p" unicode="p" horiz-adv-x="566" d="M161 -200 L161 37 C193 20 242 -7 316 -7 C462 -7 525 79 525 250 C525 427 454 512 316 512 C242 512 188 480 161 463 L161 500 L61 500 L61 -200 L161 -200 Z M276 438 C349 438 423 406 423 250 C423 95 351 63 282 62 C229 62 188 83 161 97 L161 403 C186 419 225 438 276 438 L276 438 Z " />
<glyph glyph-name="q" unicode="q" horiz-adv-x="566" d="M505 479 C441 495 371 510 269 510 C101 510 40 415 40 250 C40 85 100 -11 255 -11 C322 -11 374 19 405 37 L405 -200 L505 -200 L505 479 Z M290 438 C341 438 377 429 405 417 L405 97 C379 83 341 62 290 62 C217 62 143 91 143 250 C143 406 216 438 290 438 L290 438 Z " />
<glyph glyph-name="r" unicode="r" horiz-adv-x="380" d="M351 510 L310 510 C246 510 188 461 161 410 L161 500 L61 500 L61 0 L161 0 L161 295 C161 344 231 425 313 425 L363 425 L351 510 Z " />
<glyph glyph-name="s" unicode="s" horiz-adv-x="504" d="M259 510 C134 510 41 472 41 368 C41 215 205 227 313 186 C350 172 366 149 366 119 C366 95 351 59 250 59 C182 59 108 77 48 92 L39 22 C103 4 178 -10 258 -10 C378 -10 466 11 466 127 C466 277 302 271 189 307 C160 316 141 338 141 368 C141 401 166 441 258 441 C329 441 382 426 434 410 L448 479 C401 493 340 510 259 510 L259 510 Z " />
<glyph glyph-name="t" unicode="t" horiz-adv-x="392" d="M17 431 L102 431 L102 146 C102 36 152 -10 261 -10 C324 -10 366 4 384 11 L369 74 C345 67 326 59 280 59 C236 59 202 82 202 161 L202 431 L372 431 L372 500 L202 500 L202 640 L102 627 L102 500 L17 500 L17 431 Z " />
<glyph glyph-name="u" unicode="u" horiz-adv-x="576" d="M61 500 L61 150 C61 55 107 -10 210 -10 C290 -10 373 25 415 52 L415 0 L515 0 L515 500 L415 500 L415 117 C387 93 325 62 260 62 C199 62 161 93 161 176 L161 500 L61 500 Z " />
<glyph glyph-name="v" unicode="v" horiz-adv-x="506" d="M189 0 L318 0 L496 500 L398 500 L264 72 L258 72 L121 500 L10 500 L189 0 Z " />
<glyph glyph-name="w" unicode="w" horiz-adv-x="806" d="M149 0 L272 0 L403 418 L533 0 L656 0 L792 500 L688 500 L596 87 L592 87 L459 500 L349 500 L217 88 L213 88 L122 500 L13 500 L149 0 Z " />
<glyph glyph-name="x" unicode="x" horiz-adv-x="516" d="M125 500 L10 500 L196 262 L10 0 L122 0 L244 202 L391 0 L506 0 L319 242 L506 500 L395 500 L274 298 L125 500 Z " />
<glyph glyph-name="y" unicode="y" horiz-adv-x="541" d="M9 500 L196 60 C208 24 244 2 270 0 L231 -94 C211 -142 180 -156 140 -156 C110 -156 66 -143 42 -134 L23 -203 C56 -217 107 -230 152 -230 C227 -230 267 -192 294 -145 C316 -107 339 -62 362 5 L531 500 L423 500 L295 61 L120 500 L9 500 Z " />
<glyph glyph-name="z" unicode="z" horiz-adv-x="499" d="M53 426 L327 426 L37 52 L37 0 L458 0 L458 74 L168 74 L455 448 L455 500 L53 500 L53 426 Z " />
<glyph glyph-name="braceleft" unicode="&#x7b;" horiz-adv-x="431" d="M353 708 L353 800 L291 800 C197 800 146 759 146 669 L146 436 C146 404 124 392 112 392 L78 392 L78 300 L112 300 C125 300 146 288 146 256 L146 -4 C146 -94 194 -140 291 -140 L353 -140 L353 -48 L297 -48 C270 -48 252 -32 252 -4 L252 237 C252 304 239 328 210 349 C232 362 252 376 252 417 L252 664 C252 693 270 708 297 708 L353 708 Z " />
<glyph glyph-name="bar" unicode="&#x7c;" horiz-adv-x="262" d="M78 750 L78 -250 L184 -250 L184 750 L78 750 Z " />
<glyph glyph-name="braceright" unicode="&#x7d;" horiz-adv-x="431" d="M134 708 C161 708 179 693 179 664 L179 417 C179 376 199 362 221 349 C192 328 179 304 179 237 L179 -4 C179 -32 161 -48 134 -48 L78 -48 L78 -140 L140 -140 C236 -140 285 -94 285 -4 L285 256 C285 288 306 300 319 300 L353 300 L353 392 L319 392 C307 392 285 404 285 436 L285 669 C285 759 234 800 140 800 L78 800 L78 708 L134 708 Z " />
<glyph glyph-name="asciitilde" unicode="&#x7e;" horiz-adv-x="693" d="M121 349 C139 366 199 409 247 409 C329 409 370 346 469 346 C552 346 611 429 621 443 L575 520 C565 509 511 450 453 450 C361 450 318 513 231 513 C157 513 97 444 84 429 L121 349 Z " />
<glyph glyph-name="sterling" unicode="&#xa3;" horiz-adv-x="807" d="M644 669 C636 671 532 710 423 710 C278 710 170 630 170 486 L170 411 L111 411 L111 344 L170 344 L170 106 C136 93 107 76 84 61 L111 -7 C160 23 231 45 292 45 C389 45 440 -10 529 -10 C622 -10 704 67 717 79 L678 144 C671 140 597 76 525 76 C451 76 401 126 321 126 C306 126 290 124 276 122 L276 344 L563 344 L563 411 L276 411 L276 479 C276 588 351 631 423 631 C511 631 620 598 621 597 L644 669 Z " />
<glyph glyph-name="section" unicode="&#xa7;" horiz-adv-x="708" d="M354 707 C209 707 81 655 81 545 C81 474 143 421 215 402 C159 374 81 332 81 257 C81 119 231 85 331 67 C429 49 521 26 521 -38 C521 -79 481 -122 354 -122 C280 -122 184 -104 105 -85 L86 -164 C145 -178 256 -200 354 -200 C488 -200 627 -154 627 -38 C627 35 571 79 494 104 C557 130 627 178 627 250 C627 391 477 419 371 441 C275 461 187 484 187 546 C187 585 227 629 354 629 C455 629 534 609 603 591 L621 670 C547 689 456 707 354 707 L354 707 Z M187 257 C187 307 260 347 327 372 C431 352 521 328 521 250 C521 196 453 165 381 135 C299 154 187 168 187 257 L187 257 Z " />
<glyph glyph-name="dieresis" unicode="&#xa8;" horiz-adv-x="413" d="M68 709 L68 577 L171 577 L171 709 L68 709 Z M242 709 L242 577 L345 577 L345 709 L242 709 Z " />
<glyph glyph-name="copyright" unicode="&#xa9;" horiz-adv-x="1066" d="M533 710 C221 710 78 536 78 255 C78 -26 221 -200 533 -200 C845 -200 988 -26 988 255 C988 536 845 710 533 710 L533 710 Z M901 255 C901 -8 782 -130 533 -130 C296 -130 165 -8 165 255 C165 510 288 641 533 641 C786 641 901 510 901 255 L901 255 Z M687 86 C643 71 599 62 555 62 C444 62 410 114 410 215 L410 289 C410 400 446 448 555 448 C599 448 641 439 685 424 L701 489 C657 504 609 514 555 514 C399 514 330 442 330 290 L330 214 C330 61 399 -4 555 -4 C609 -4 657 7 701 22 L687 86 Z " />
<glyph glyph-name="guillemotleft" unicode="&#xab;" horiz-adv-x="555" d="M78 254 L220 52 L313 52 L179 255 L314 469 L224 469 L78 254 Z M247 254 L389 52 L482 52 L348 255 L483 469 L393 469 L247 254 Z " />
<glyph glyph-name="registered" unicode="&#xae;" horiz-adv-x="649" d="M311 710 C158 710 76 632 76 477 C76 322 158 244 311 244 C465 244 546 322 546 477 C546 632 465 710 311 710 L311 710 Z M489 477 C489 345 432 288 311 288 C196 288 134 345 134 477 C134 605 192 666 311 666 C435 666 489 605 489 477 L489 477 Z M366 347 L425 347 L347 449 C380 450 409 473 409 528 C409 587 377 610 313 610 L225 610 L225 347 L274 347 L274 449 L295 449 L366 347 Z M274 569 L314 569 C344 569 359 559 359 528 C359 497 344 485 314 485 L274 485 L274 569 Z " />
<glyph glyph-name="degree" unicode="&#xb0;" horiz-adv-x="544" d="M272 713 C165 713 68 626 68 519 C68 412 165 325 272 325 C379 325 476 412 476 519 C476 626 379 713 272 713 L272 713 Z M385 519 C385 457 334 407 272 407 C210 407 160 457 160 519 C160 581 210 632 272 632 C334 632 385 581 385 519 L385 519 Z " />
<glyph glyph-name="plusminus" unicode="&#xb1;" horiz-adv-x="656" d="M281 630 L281 427 L78 427 L78 342 L281 342 L281 139 L375 139 L375 342 L578 342 L578 427 L375 427 L375 630 L281 630 Z M78 0 L578 0 L578 85 L78 85 L78 0 Z " />
<glyph glyph-name="acute" unicode="&#xb4;" horiz-adv-x="277" d="M68 560 L132 550 L202 750 L95 750 L68 560 Z " />
<glyph glyph-name="paragraph" unicode="&#xb6;" horiz-adv-x="727" d="M668 700 L259 700 C144 700 78 622 78 494 C78 366 144 288 259 288 L271 288 L271 -149 L377 -133 L377 614 L494 614 L494 -102 L600 -84 L600 614 L687 614 L668 700 Z " />
<glyph glyph-name="periodcentered" unicode="&#xb7;" horiz-adv-x="279" d="M78 250 C78 217 94 189 139 189 C184 189 201 217 201 250 C201 284 184 312 139 312 C94 312 78 284 78 250 L78 250 Z " />
<glyph glyph-name="guillemotright" unicode="&#xbb;" horiz-adv-x="555" d="M381 255 L248 52 L340 52 L483 254 L336 469 L247 469 L381 255 Z M212 255 L79 52 L171 52 L314 254 L167 469 L78 469 L212 255 Z " />
<glyph glyph-name="Agrave" unicode="&#xc0;" horiz-adv-x="652" d="M515 0 L627 0 L393 700 L261 700 L25 0 L137 0 L197 190 L455 190 L515 0 Z M328 604 L438 262 L215 262 L328 604 Z M356 949 L249 949 L313 750 L383 762 L356 949 Z " />
<glyph glyph-name="Aacute" unicode="&#xc1;" horiz-adv-x="652" d="M515 0 L627 0 L393 700 L261 700 L25 0 L137 0 L197 190 L455 190 L515 0 Z M328 604 L438 262 L215 262 L328 604 Z M259 760 L323 750 L393 950 L286 950 L259 760 Z " />
<glyph glyph-name="Acircumflex" unicode="&#xc2;" horiz-adv-x="652" d="M515 0 L627 0 L393 700 L261 700 L25 0 L137 0 L197 190 L455 190 L515 0 Z M328 604 L438 262 L215 262 L328 604 Z M278 935 L191 783 L276 783 L325 893 L375 783 L461 783 L370 935 L278 935 Z " />
<glyph glyph-name="Atilde" unicode="&#xc3;" horiz-adv-x="652" d="M515 0 L627 0 L393 700 L261 700 L25 0 L137 0 L197 190 L455 190 L515 0 Z M328 604 L438 262 L215 262 L328 604 Z M177 819 C197 831 223 851 267 851 C313 851 337 810 391 810 C438 810 485 847 500 867 L474 916 C455 902 430 877 391 877 C345 877 323 919 267 919 C223 919 180 889 158 872 L177 819 Z " />
<glyph glyph-name="Adieresis" unicode="&#xc4;" horiz-adv-x="652" d="M515 0 L627 0 L393 700 L261 700 L25 0 L137 0 L197 190 L455 190 L515 0 Z M328 604 L438 262 L215 262 L328 604 Z M187 909 L187 777 L290 777 L290 909 L187 909 Z M361 909 L361 777 L464 777 L464 909 L361 909 Z " />
<glyph glyph-name="Egrave" unicode="&#xc8;" horiz-adv-x="555" d="M184 337 L465 337 L465 412 L184 412 L184 620 L511 620 L511 700 L78 700 L78 0 L511 0 L511 80 L184 80 L184 337 Z M317 949 L210 949 L274 750 L345 762 L317 949 Z " />
<glyph glyph-name="Eacute" unicode="&#xc9;" horiz-adv-x="555" d="M184 337 L465 337 L465 412 L184 412 L184 620 L511 620 L511 700 L78 700 L78 0 L511 0 L511 80 L184 80 L184 337 Z M240 760 L305 750 L375 950 L268 950 L240 760 Z " />
<glyph glyph-name="Ecircumflex" unicode="&#xca;" horiz-adv-x="555" d="M184 337 L465 337 L465 412 L184 412 L184 620 L511 620 L511 700 L78 700 L78 0 L511 0 L511 80 L184 80 L184 337 Z M230 935 L142 783 L228 783 L277 893 L326 783 L412 783 L322 935 L230 935 Z " />
<glyph glyph-name="Edieresis" unicode="&#xcb;" horiz-adv-x="555" d="M184 337 L465 337 L465 412 L184 412 L184 620 L511 620 L511 700 L78 700 L78 0 L511 0 L511 80 L184 80 L184 337 Z M139 909 L139 777 L242 777 L242 909 L139 909 Z M312 909 L312 777 L416 777 L416 909 L312 909 Z " />
<glyph glyph-name="Igrave" unicode="&#xcc;" horiz-adv-x="368" d="M20 619 L129 619 L129 81 L23 81 L23 0 L348 0 L348 81 L235 81 L235 619 L345 619 L345 700 L20 700 L20 619 Z M224 949 L117 949 L181 750 L251 762 L224 949 Z " />
<glyph glyph-name="Iacute" unicode="&#xcd;" horiz-adv-x="368" d="M20 619 L129 619 L129 81 L23 81 L23 0 L348 0 L348 81 L235 81 L235 619 L345 619 L345 700 L20 700 L20 619 Z M117 760 L181 750 L251 950 L144 950 L117 760 Z " />
<glyph glyph-name="Icircumflex" unicode="&#xce;" horiz-adv-x="368" d="M20 619 L129 619 L129 81 L23 81 L23 0 L348 0 L348 81 L235 81 L235 619 L345 619 L345 700 L20 700 L20 619 Z M136 935 L49 783 L135 783 L184 893 L233 783 L319 783 L229 935 L136 935 Z " />
<glyph glyph-name="Idieresis" unicode="&#xcf;" horiz-adv-x="368" d="M20 619 L129 619 L129 81 L23 81 L23 0 L348 0 L348 81 L235 81 L235 619 L345 619 L345 700 L20 700 L20 619 Z M46 909 L46 777 L149 777 L149 909 L46 909 Z M219 909 L219 777 L323 777 L323 909 L219 909 Z " />
<glyph glyph-name="Ograve" unicode="&#xd2;" horiz-adv-x="708" d="M44 266 C44 104 154 -10 354 -10 C554 -10 664 104 664 266 L664 431 C664 593 553 710 354 710 C155 710 44 593 44 431 L44 266 Z M155 424 C155 544 233 629 354 629 C487 629 553 537 553 424 L553 275 C553 153 487 71 354 71 C228 71 155 153 155 275 L155 424 Z M394 949 L287 949 L351 750 L421 762 L394 949 Z " />
<glyph glyph-name="Oacute" unicode="&#xd3;" horiz-adv-x="708" d="M44 266 C44 104 154 -10 354 -10 C554 -10 664 104 664 266 L664 431 C664 593 553 710 354 710 C155 710 44 593 44 431 L44 266 Z M155 424 C155 544 233 629 354 629 C487 629 553 537 553 424 L553 275 C553 153 487 71 354 71 C228 71 155 153 155 275 L155 424 Z M287 760 L351 750 L421 950 L314 950 L287 760 Z " />
<glyph glyph-name="Ocircumflex" unicode="&#xd4;" horiz-adv-x="708" d="M44 266 C44 104 154 -10 354 -10 C554 -10 664 104 664 266 L664 431 C664 593 553 710 354 710 C155 710 44 593 44 431 L44 266 Z M155 424 C155 544 233 629 354 629 C487 629 553 537 553 424 L553 275 C553 153 487 71 354 71 C228 71 155 153 155 275 L155 424 Z M306 935 L219 783 L304 783 L353 893 L403 783 L489 783 L399 935 L306 935 Z " />
<glyph glyph-name="Otilde" unicode="&#xd5;" horiz-adv-x="708" d="M44 266 C44 104 154 -10 354 -10 C554 -10 664 104 664 266 L664 431 C664 593 553 710 354 710 C155 710 44 593 44 431 L44 266 Z M155 424 C155 544 233 629 354 629 C487 629 553 537 553 424 L553 275 C553 153 487 71 354 71 C228 71 155 153 155 275 L155 424 Z M205 819 C225 831 251 851 295 851 C341 851 365 810 419 810 C466 810 513 847 528 867 L502 916 C483 902 458 877 419 877 C373 877 351 919 295 919 C248 919 208 889 186 872 L205 819 Z " />
<glyph glyph-name="Odieresis" unicode="&#xd6;" horiz-adv-x="708" d="M44 266 C44 104 154 -10 354 -10 C554 -10 664 104 664 266 L664 431 C664 593 553 710 354 710 C155 710 44 593 44 431 L44 266 Z M155 424 C155 544 233 629 354 629 C487 629 553 537 553 424 L553 275 C553 153 487 71 354 71 C228 71 155 153 155 275 L155 424 Z M215 909 L215 777 L318 777 L318 909 L215 909 Z M389 909 L389 777 L492 777 L492 909 L389 909 Z " />
<glyph glyph-name="Ugrave" unicode="&#xd9;" horiz-adv-x="653" d="M491 700 L491 240 C491 123 445 71 339 71 C233 71 173 122 173 240 L173 700 L64 700 L64 250 C64 83 151 -10 336 -10 C511 -10 589 83 589 250 L589 700 L491 700 Z M366 949 L259 949 L323 750 L394 762 L366 949 Z " />
<glyph glyph-name="Uacute" unicode="&#xda;" horiz-adv-x="653" d="M491 700 L491 240 C491 123 445 71 339 71 C233 71 173 122 173 240 L173 700 L64 700 L64 250 C64 83 151 -10 336 -10 C511 -10 589 83 589 250 L589 700 L491 700 Z M259 760 L324 750 L394 950 L287 950 L259 760 Z " />
<glyph glyph-name="Ucircumflex" unicode="&#xdb;" horiz-adv-x="653" d="M491 700 L491 240 C491 123 445 71 339 71 C233 71 173 122 173 240 L173 700 L64 700 L64 250 C64 83 151 -10 336 -10 C511 -10 589 83 589 250 L589 700 L491 700 Z M279 935 L191 783 L277 783 L326 893 L375 783 L461 783 L371 935 L279 935 Z " />
<glyph glyph-name="Udieresis" unicode="&#xdc;" horiz-adv-x="653" d="M491 700 L491 240 C491 123 445 71 339 71 C233 71 173 122 173 240 L173 700 L64 700 L64 250 C64 83 151 -10 336 -10 C511 -10 589 83 589 250 L589 700 L491 700 Z M198 909 L198 777 L301 777 L301 909 L198 909 Z M371 909 L371 777 L475 777 L475 909 L371 909 Z " />
<glyph glyph-name="agrave" unicode="&#xe0;" horiz-adv-x="529" d="M82 416 C122 425 199 445 264 445 C338 445 368 415 368 347 L368 277 L226 277 C114 277 40 238 40 142 C40 41 94 -11 212 -11 C283 -11 340 17 368 37 L368 0 L468 0 L468 329 C468 441 428 510 268 510 C177 510 101 487 69 479 L82 416 Z M251 48 C175 48 143 83 143 143 C143 178 173 226 247 226 L368 226 L368 83 C342 71 289 48 251 48 L251 48 Z M304 749 L197 749 L261 550 L331 562 L304 749 Z " />
<glyph glyph-name="aacute" unicode="&#xe1;" horiz-adv-x="529" d="M82 416 C122 425 199 445 264 445 C338 445 368 415 368 347 L368 277 L226 277 C114 277 40 238 40 142 C40 41 94 -11 212 -11 C283 -11 340 17 368 37 L368 0 L468 0 L468 329 C468 441 428 510 268 510 C177 510 101 487 69 479 L82 416 Z M251 48 C175 48 143 83 143 143 C143 178 173 226 247 226 L368 226 L368 83 C342 71 289 48 251 48 L251 48 Z M217 560 L281 550 L351 750 L244 750 L217 560 Z " />
<glyph glyph-name="acircumflex" unicode="&#xe2;" horiz-adv-x="529" d="M82 416 C122 425 199 445 264 445 C338 445 368 415 368 347 L368 277 L226 277 C114 277 40 238 40 142 C40 41 94 -11 212 -11 C283 -11 340 17 368 37 L368 0 L468 0 L468 329 C468 441 428 510 268 510 C177 510 101 487 69 479 L82 416 Z M251 48 C175 48 143 83 143 143 C143 178 173 226 247 226 L368 226 L368 83 C342 71 289 48 251 48 L251 48 Z M216 735 L129 583 L215 583 L264 693 L313 583 L399 583 L309 735 L216 735 Z " />
<glyph glyph-name="atilde" unicode="&#xe3;" horiz-adv-x="529" d="M82 416 C122 425 199 445 264 445 C338 445 368 415 368 347 L368 277 L226 277 C114 277 40 238 40 142 C40 41 94 -11 212 -11 C283 -11 340 17 368 37 L368 0 L468 0 L468 329 C468 441 428 510 268 510 C177 510 101 487 69 479 L82 416 Z M251 48 C175 48 143 83 143 143 C143 178 173 226 247 226 L368 226 L368 83 C342 71 289 48 251 48 L251 48 Z M116 619 C136 631 161 651 205 651 C251 651 275 610 329 610 C377 610 423 647 439 667 L413 716 C393 702 368 677 329 677 C283 677 261 719 205 719 C155 719 118 689 97 672 L116 619 Z " />
<glyph glyph-name="adieresis" unicode="&#xe4;" horiz-adv-x="529" d="M82 416 C122 425 199 445 264 445 C338 445 368 415 368 347 L368 277 L226 277 C114 277 40 238 40 142 C40 41 94 -11 212 -11 C283 -11 340 17 368 37 L368 0 L468 0 L468 329 C468 441 428 510 268 510 C177 510 101 487 69 479 L82 416 Z M251 48 C175 48 143 83 143 143 C143 178 173 226 247 226 L368 226 L368 83 C342 71 289 48 251 48 L251 48 Z M125 709 L125 577 L228 577 L228 709 L125 709 Z M299 709 L299 577 L402 577 L402 709 L299 709 Z " />
<glyph glyph-name="egrave" unicode="&#xe8;" horiz-adv-x="529" d="M469 88 C412 70 340 54 290 54 C199 54 143 84 143 181 L143 224 L491 224 L491 310 C491 452 399 510 267 510 C108 510 40 425 40 282 L40 186 C40 34 146 -10 281 -10 C352 -10 416 4 480 24 L469 88 Z M143 306 C143 402 181 451 267 451 C351 451 396 407 396 320 L396 273 L143 273 L143 306 Z M304 749 L197 749 L261 550 L331 562 L304 749 Z " />
<glyph glyph-name="eacute" unicode="&#xe9;" horiz-adv-x="529" d="M469 88 C412 70 340 54 290 54 C199 54 143 84 143 181 L143 224 L491 224 L491 310 C491 452 399 510 267 510 C108 510 40 425 40 282 L40 186 C40 34 146 -10 281 -10 C352 -10 416 4 480 24 L469 88 Z M143 306 C143 402 181 451 267 451 C351 451 396 407 396 320 L396 273 L143 273 L143 306 Z M197 560 L261 550 L331 750 L224 750 L197 560 Z " />
<glyph glyph-name="ecircumflex" unicode="&#xea;" horiz-adv-x="529" d="M469 88 C412 70 340 54 290 54 C199 54 143 84 143 181 L143 224 L491 224 L491 310 C491 452 399 510 267 510 C108 510 40 425 40 282 L40 186 C40 34 146 -10 281 -10 C352 -10 416 4 480 24 L469 88 Z M143 306 C143 402 181 451 267 451 C351 451 396 407 396 320 L396 273 L143 273 L143 306 Z M217 735 L130 583 L215 583 L264 693 L313 583 L399 583 L309 735 L217 735 Z " />
<glyph glyph-name="edieresis" unicode="&#xeb;" horiz-adv-x="529" d="M469 88 C412 70 340 54 290 54 C199 54 143 84 143 181 L143 224 L491 224 L491 310 C491 452 399 510 267 510 C108 510 40 425 40 282 L40 186 C40 34 146 -10 281 -10 C352 -10 416 4 480 24 L469 88 Z M143 306 C143 402 181 451 267 451 C351 451 396 407 396 320 L396 273 L143 273 L143 306 Z M125 709 L125 577 L228 577 L228 709 L125 709 Z M299 709 L299 577 L402 577 L402 709 L299 709 Z " />
<glyph glyph-name="igrave" unicode="&#xec;" horiz-adv-x="222" d="M61 500 L61 0 L161 0 L161 500 L61 500 Z M151 749 L44 749 L108 550 L178 562 L151 749 Z " />
<glyph glyph-name="iacute" unicode="&#xed;" horiz-adv-x="222" d="M61 500 L61 0 L161 0 L161 500 L61 500 Z M44 560 L108 550 L178 750 L71 750 L44 560 Z " />
<glyph glyph-name="icircumflex" unicode="&#xee;" horiz-adv-x="222" d="M61 500 L61 0 L161 0 L161 500 L61 500 Z M63 735 L-24 583 L62 583 L111 693 L160 583 L246 583 L156 735 L63 735 Z " />
<glyph glyph-name="idieresis" unicode="&#xef;" horiz-adv-x="222" d="M61 500 L61 0 L161 0 L161 500 L61 500 Z M-27 709 L-27 577 L76 577 L76 709 L-27 709 Z M146 709 L146 577 L250 577 L250 709 L146 709 Z " />
<glyph glyph-name="ograve" unicode="&#xf2;" horiz-adv-x="558" d="M37 197 C37 68 124 -10 278 -10 C431 -10 521 68 521 197 L521 302 C521 431 431 510 278 510 C124 510 37 431 37 302 L37 197 Z M137 308 C137 389 189 447 278 447 C371 447 419 384 419 301 L419 199 C419 115 371 52 278 52 C185 52 137 114 137 199 L137 308 Z M319 749 L212 749 L276 550 L346 562 L319 749 Z " />
<glyph glyph-name="oacute" unicode="&#xf3;" horiz-adv-x="558" d="M37 197 C37 68 124 -10 278 -10 C431 -10 521 68 521 197 L521 302 C521 431 431 510 278 510 C124 510 37 431 37 302 L37 197 Z M137 308 C137 389 189 447 278 447 C371 447 419 384 419 301 L419 199 C419 115 371 52 278 52 C185 52 137 114 137 199 L137 308 Z M212 560 L276 550 L346 750 L239 750 L212 560 Z " />
<glyph glyph-name="ocircumflex" unicode="&#xf4;" horiz-adv-x="558" d="M37 197 C37 68 124 -10 278 -10 C431 -10 521 68 521 197 L521 302 C521 431 431 510 278 510 C124 510 37 431 37 302 L37 197 Z M137 308 C137 389 189 447 278 447 C371 447 419 384 419 301 L419 199 C419 115 371 52 278 52 C185 52 137 114 137 199 L137 308 Z M231 735 L144 583 L229 583 L278 693 L328 583 L414 583 L324 735 L231 735 Z " />
<glyph glyph-name="otilde" unicode="&#xf5;" horiz-adv-x="558" d="M37 197 C37 68 124 -10 278 -10 C431 -10 521 68 521 197 L521 302 C521 431 431 510 278 510 C124 510 37 431 37 302 L37 197 Z M137 308 C137 389 189 447 278 447 C371 447 419 384 419 301 L419 199 C419 115 371 52 278 52 C185 52 137 114 137 199 L137 308 Z M130 619 C150 631 176 651 220 651 C266 651 290 610 344 610 C391 610 438 647 453 667 L427 716 C408 702 383 677 344 677 C298 677 276 719 220 719 C170 719 133 689 111 672 L130 619 Z " />
<glyph glyph-name="odieresis" unicode="&#xf6;" horiz-adv-x="558" d="M37 197 C37 68 124 -10 278 -10 C431 -10 521 68 521 197 L521 302 C521 431 431 510 278 510 C124 510 37 431 37 302 L37 197 Z M137 308 C137 389 189 447 278 447 C371 447 419 384 419 301 L419 199 C419 115 371 52 278 52 C185 52 137 114 137 199 L137 308 Z M140 709 L140 577 L243 577 L243 709 L140 709 Z M314 709 L314 577 L417 577 L417 709 L314 709 Z " />
<glyph glyph-name="ugrave" unicode="&#xf9;" horiz-adv-x="576" d="M61 500 L61 150 C61 55 107 -10 210 -10 C290 -10 373 25 415 52 L415 0 L515 0 L515 500 L415 500 L415 117 C387 93 325 62 260 62 C199 62 161 93 161 176 L161 500 L61 500 Z M328 749 L221 749 L285 550 L355 562 L328 749 Z " />
<glyph glyph-name="uacute" unicode="&#xfa;" horiz-adv-x="576" d="M61 500 L61 150 C61 55 107 -10 210 -10 C290 -10 373 25 415 52 L415 0 L515 0 L515 500 L415 500 L415 117 C387 93 325 62 260 62 C199 62 161 93 161 176 L161 500 L61 500 Z M221 560 L285 550 L355 750 L248 750 L221 560 Z " />
<glyph glyph-name="ucircumflex" unicode="&#xfb;" horiz-adv-x="576" d="M61 500 L61 150 C61 55 107 -10 210 -10 C290 -10 373 25 415 52 L415 0 L515 0 L515 500 L415 500 L415 117 C387 93 325 62 260 62 C199 62 161 93 161 176 L161 500 L61 500 Z M240 735 L153 583 L238 583 L287 693 L337 583 L423 583 L332 735 L240 735 Z " />
<glyph glyph-name="udieresis" unicode="&#xfc;" horiz-adv-x="576" d="M61 500 L61 150 C61 55 107 -10 210 -10 C290 -10 373 25 415 52 L415 0 L515 0 L515 500 L415 500 L415 117 C387 93 325 62 260 62 C199 62 161 93 161 176 L161 500 L61 500 Z M149 709 L149 577 L252 577 L252 709 L149 709 Z M323 709 L323 577 L426 577 L426 709 L323 709 Z " />
<glyph glyph-name="circumflex" unicode="&#x2c6;" horiz-adv-x="435" d="M171 735 L84 583 L169 583 L218 693 L268 583 L354 583 L263 735 L171 735 Z " />
<glyph glyph-name="tilde" unicode="&#x2dc;" horiz-adv-x="480" d="M93 619 C113 631 139 651 182 651 C229 651 252 610 306 610 C354 610 400 647 416 667 L390 716 C370 702 345 677 306 677 C260 677 238 719 182 719 C133 719 95 689 74 672 L93 619 Z " />
<glyph glyph-name="afii10023" unicode="&#x401;" horiz-adv-x="561" d="M163 909 L163 777 L266 777 L266 909 L163 909 Z M336 909 L336 777 L440 777 L440 909 L336 909 Z M184 333 L465 333 L465 412 L184 412 L184 619 L511 619 L511 700 L78 700 L78 0 L511 0 L511 81 L184 81 L184 333 Z " />
<glyph glyph-name="afii10017" unicode="&#x410;" horiz-adv-x="652" d="M515 0 L627 0 L393 700 L261 700 L25 0 L137 0 L197 190 L455 190 L515 0 Z M328 604 L434 273 L218 273 L328 604 Z " />
<glyph glyph-name="afii10018" unicode="&#x411;" horiz-adv-x="601" d="M184 609 L495 609 L495 700 L78 700 L78 0 L338 0 C515 0 554 95 554 213 C554 348 501 425 339 425 L184 425 L184 609 Z M314 341 C398 341 449 319 449 213 C449 107 398 85 314 85 L184 85 L184 341 L314 341 Z " />
<glyph glyph-name="afii10019" unicode="&#x412;" horiz-adv-x="592" d="M78 0 L332 0 C502 0 548 82 548 203 C548 307 500 360 431 385 C483 404 514 454 514 533 C514 653 442 700 339 700 L78 700 L78 0 Z M184 329 L308 329 C371 329 443 304 443 206 C443 107 392 77 308 77 L184 77 L184 329 Z M315 623 C377 623 409 586 409 524 C409 431 357 406 315 406 L184 406 L184 623 L315 623 Z " />
<glyph glyph-name="afii10020" unicode="&#x413;" horiz-adv-x="503" d="M184 0 L184 608 L483 608 L483 700 L78 700 L78 0 L184 0 Z " />
<glyph glyph-name="afii10021" unicode="&#x414;" horiz-adv-x="738" d="M174 700 C174 530 174 214 78 81 L20 81 L20 -200 L117 -200 L126 0 L588 0 L588 -200 L682 -200 L694 81 L614 81 L614 700 L174 700 Z M508 613 L508 81 L180 81 C269 210 270 462 272 613 L508 613 Z " />
<glyph glyph-name="afii10022" unicode="&#x415;" horiz-adv-x="555" d="M184 333 L465 333 L465 412 L184 412 L184 619 L511 619 L511 700 L78 700 L78 0 L511 0 L511 81 L184 81 L184 333 Z " />
<glyph glyph-name="afii10024" unicode="&#x416;" horiz-adv-x="839" d="M259 378 L14 0 L126 0 L351 362 L367 362 L367 0 L473 0 L473 362 L488 362 L713 0 L825 0 L580 378 L826 700 L708 700 L489 393 L473 393 L473 700 L367 700 L367 393 L351 393 L131 700 L14 700 L259 378 Z " />
<glyph glyph-name="afii10025" unicode="&#x417;" horiz-adv-x="580" d="M44 28 C61 21 156 -10 250 -10 C420 -10 533 28 533 188 C533 316 479 359 383 385 C459 406 493 457 493 537 C493 672 409 710 259 710 C174 710 97 689 58 672 L76 595 C118 610 190 630 256 630 C348 630 388 592 388 520 C388 443 331 407 256 407 L139 407 L139 334 L231 334 C311 334 425 325 425 194 C425 97 357 69 250 69 C166 69 91 101 59 110 L44 28 Z " />
<glyph glyph-name="afii10026" unicode="&#x418;" horiz-adv-x="735" d="M78 700 L78 0 L171 0 L551 549 L551 0 L657 0 L657 700 L564 700 L184 151 L184 700 L78 700 Z " />
<glyph glyph-name="afii10027" unicode="&#x419;" horiz-adv-x="735" d="M162 886 L162 864 C162 770 288 754 374 754 C465 754 588 770 588 864 L588 886 L506 886 C506 857 497 809 374 809 C251 809 243 858 243 886 L162 886 Z M78 700 L78 0 L171 0 L551 549 L551 0 L657 0 L657 700 L564 700 L184 151 L184 700 L78 700 Z " />
<glyph glyph-name="afii10028" unicode="&#x41a;" horiz-adv-x="631" d="M184 700 L78 700 L78 0 L184 0 L184 354 L198 354 L496 0 L620 0 L300 379 L617 700 L488 700 L197 393 L184 393 L184 700 Z " />
<glyph glyph-name="afii10029" unicode="&#x41b;" horiz-adv-x="696" d="M177 700 C177 305 143 83 49 83 C35 83 24 83 17 84 L33 -5 C47 -8 64 -10 79 -10 C245 -10 268 338 272 610 L512 610 L512 0 L618 0 L618 700 L177 700 Z " />
<glyph glyph-name="afii10030" unicode="&#x41c;" horiz-adv-x="917" d="M199 563 L403 0 L513 0 L718 563 L756 0 L859 0 L800 700 L675 700 L459 96 L241 700 L117 700 L58 0 L161 0 L199 563 Z " />
<glyph glyph-name="afii10031" unicode="&#x41d;" horiz-adv-x="713" d="M529 700 L529 418 L184 418 L184 700 L78 700 L78 0 L184 0 L184 337 L529 337 L529 0 L635 0 L635 700 L529 700 Z " />
<glyph glyph-name="afii10032" unicode="&#x41e;" horiz-adv-x="708" d="M44 266 C44 104 154 -10 354 -10 C554 -10 664 104 664 266 L664 431 C664 593 553 710 354 710 C155 710 44 593 44 431 L44 266 Z M153 440 C153 560 233 630 354 630 C487 630 555 553 555 440 L555 259 C555 137 487 70 354 70 C228 70 153 137 153 259 L153 440 Z " />
<glyph glyph-name="afii10033" unicode="&#x41f;" horiz-adv-x="727" d="M184 0 L184 613 L543 613 L543 0 L649 0 L649 700 L78 700 L78 0 L184 0 Z " />
<glyph glyph-name="afii10034" unicode="&#x420;" horiz-adv-x="604" d="M78 700 L78 0 L184 0 L184 241 L305 241 C480 241 560 304 560 477 C560 650 480 700 305 700 L78 700 Z M184 624 L305 624 C397 624 452 589 452 477 C452 343 382 317 305 317 L184 317 L184 624 Z " />
<glyph glyph-name="afii10035" unicode="&#x421;" horiz-adv-x="559" d="M497 103 C447 87 381 68 329 68 C200 68 152 158 152 272 L152 427 C152 552 204 632 329 632 C381 632 444 616 494 597 L515 672 C465 692 395 710 329 710 C142 710 44 612 44 428 L44 272 C44 87 142 -10 329 -10 C395 -10 465 11 515 28 L497 103 Z " />
<glyph glyph-name="afii10036" unicode="&#x422;" horiz-adv-x="558" d="M24 616 L226 616 L226 0 L332 0 L332 616 L534 616 L534 700 L24 700 L24 616 Z " />
<glyph glyph-name="afii10037" unicode="&#x423;" horiz-adv-x="611" d="M289 149 C264 91 234 68 187 68 C137 68 95 80 59 95 L38 17 C72 5 142 -10 205 -10 C290 -10 356 42 400 159 L601 700 L492 700 L325 220 L312 220 L123 700 L10 700 L216 209 C233 169 272 152 289 149 L289 149 Z " />
<glyph glyph-name="afii10038" unicode="&#x424;" horiz-adv-x="850" d="M372 733 L372 652 L313 652 C134 652 44 570 44 398 L44 341 C44 173 134 88 313 88 L372 88 L372 0 L478 0 L478 88 L537 88 C716 88 806 173 806 341 L806 398 C806 570 716 652 537 652 L478 652 L478 733 L372 733 Z M537 577 C649 577 698 520 698 405 L698 334 C698 216 648 163 537 163 L478 163 L478 577 L537 577 Z M152 334 L152 405 C152 521 201 576 313 576 L372 576 L372 163 L313 163 C202 163 152 216 152 334 L152 334 Z " />
<glyph glyph-name="afii10039" unicode="&#x425;" horiz-adv-x="632" d="M141 700 L10 700 L252 350 L10 0 L137 0 L304 284 L491 0 L622 0 L379 350 L622 700 L495 700 L329 414 L141 700 Z " />
<glyph glyph-name="afii10040" unicode="&#x426;" horiz-adv-x="750" d="M78 700 L78 0 L600 0 L600 -178 L699 -178 L708 81 L626 81 L626 700 L520 700 L520 81 L184 81 L184 700 L78 700 Z " />
<glyph glyph-name="afii10041" unicode="&#x427;" horiz-adv-x="622" d="M58 700 L58 434 C58 267 183 241 284 241 C339 241 385 243 438 248 L438 0 L544 0 L544 700 L438 700 L438 333 C391 328 339 327 289 327 C208 327 164 348 164 440 L164 700 L58 700 Z " />
<glyph glyph-name="afii10042" unicode="&#x428;" horiz-adv-x="922" d="M408 700 L408 81 L184 81 L184 700 L78 700 L78 0 L844 0 L844 700 L738 700 L738 81 L514 81 L514 700 L408 700 Z " />
<glyph glyph-name="afii10043" unicode="&#x429;" horiz-adv-x="968" d="M408 700 L408 81 L184 81 L184 700 L78 700 L78 0 L818 0 L818 -178 L915 -178 L924 81 L844 81 L844 700 L738 700 L738 81 L514 81 L514 700 L408 700 Z " />
<glyph glyph-name="afii10044" unicode="&#x42a;" horiz-adv-x="678" d="M152 0 L379 0 C561 0 634 66 634 217 C634 368 563 436 397 436 C357 436 299 431 258 425 L258 700 L26 700 L17 623 L152 623 L152 0 Z M379 362 C470 362 525 332 525 217 C525 102 471 72 379 72 L258 72 L258 353 C300 359 338 362 379 362 L379 362 Z " />
<glyph glyph-name="afii10045" unicode="&#x42b;" horiz-adv-x="838" d="M654 0 L760 0 L760 700 L654 700 L654 0 Z M305 0 L78 0 L78 700 L184 700 L184 425 C236 433 284 436 328 436 C493 436 560 362 560 217 C560 66 487 0 305 0 L305 0 Z M305 362 C265 362 226 359 184 353 L184 72 L305 72 C397 72 452 102 452 217 C452 332 396 362 305 362 L305 362 Z " />
<glyph glyph-name="afii10046" unicode="&#x42c;" horiz-adv-x="604" d="M305 0 C487 0 560 66 560 217 C560 368 490 437 314 437 C275 437 225 431 184 425 L184 700 L78 700 L78 0 L305 0 Z M305 362 C396 362 452 332 452 217 C452 102 397 72 305 72 L184 72 L184 353 C226 359 265 362 305 362 L305 362 Z " />
<glyph glyph-name="afii10047" unicode="&#x42d;" horiz-adv-x="559" d="M407 312 C407 190 378 74 230 74 C173 74 106 87 47 109 L27 28 C68 9 147 -10 230 -10 C405 -10 515 87 515 272 L515 428 C515 630 401 710 230 710 C144 710 61 687 27 672 L47 591 C100 612 185 629 238 629 C349 629 407 555 407 417 L407 403 L139 403 L139 334 L407 334 L407 312 Z " />
<glyph glyph-name="afii10048" unicode="&#x42e;" horiz-adv-x="896" d="M301 237 C301 85 397 -10 576 -10 C756 -10 852 85 852 249 L852 444 C852 608 756 710 576 710 C397 710 301 608 301 459 L301 402 L184 402 L184 700 L78 700 L78 0 L184 0 L184 330 L301 330 L301 237 Z M406 460 C406 558 470 632 576 632 C687 632 747 558 747 460 L747 240 C747 142 687 68 576 68 C466 68 406 142 406 240 L406 460 Z " />
<glyph glyph-name="afii10049" unicode="&#x42f;" horiz-adv-x="668" d="M320 700 C137 700 62 615 62 484 C62 365 121 282 248 272 L68 0 L188 0 L352 264 L484 264 L484 0 L590 0 L590 700 L320 700 Z M320 339 C228 339 173 372 173 477 C173 583 227 616 320 616 L484 616 L484 339 L320 339 Z " />
<glyph glyph-name="afii10065" unicode="&#x430;" horiz-adv-x="529" d="M82 414 C122 427 199 443 264 443 C338 443 368 413 368 345 L368 280 L226 280 C114 280 40 238 40 142 C40 41 94 -11 212 -11 C283 -11 340 17 368 37 L368 0 L468 0 L468 329 C468 441 428 510 268 510 C177 510 101 490 69 479 L82 414 Z M251 58 C175 58 143 83 143 143 C143 178 173 216 247 216 L368 216 L368 93 C342 81 289 58 251 58 L251 58 Z " />
<glyph glyph-name="afii10066" unicode="&#x431;" horiz-adv-x="579" d="M51 217 C51 76 128 -11 294 -11 C461 -11 537 76 537 200 L537 275 C537 421 449 476 326 476 C200 476 157 415 142 353 L142 471 C142 539 181 605 254 616 L442 646 C469 650 511 667 529 678 L500 763 C472 750 438 732 397 725 L213 694 C107 676 51 598 51 467 L51 217 Z M294 60 C204 60 153 115 153 202 L153 249 C153 334 204 408 294 408 C382 408 435 355 435 271 L435 202 C435 117 382 60 294 60 L294 60 Z " />
<glyph glyph-name="afii10067" unicode="&#x432;" horiz-adv-x="529" d="M61 0 L287 0 C421 0 491 27 491 149 C491 244 435 268 382 276 C420 293 450 324 450 378 C450 472 398 500 302 500 L61 500 L61 0 Z M277 227 C360 227 395 208 395 152 C395 82 357 63 279 63 L155 63 L155 227 L277 227 Z M155 288 L155 439 L275 439 C330 439 354 410 354 366 C354 313 329 288 275 288 L155 288 Z " />
<glyph glyph-name="afii10068" unicode="&#x433;" horiz-adv-x="410" d="M161 0 L161 421 L393 421 L393 500 L61 500 L61 0 L161 0 Z " />
<glyph glyph-name="afii10069" unicode="&#x434;" horiz-adv-x="621" d="M151 500 C151 371 151 157 68 69 L20 69 L20 -160 L106 -160 L114 0 L483 0 L483 -160 L569 -160 L577 69 L517 69 L517 500 L151 500 Z M417 437 L417 69 L169 69 C240 182 244 318 244 437 L417 437 Z " />
<glyph glyph-name="afii10070" unicode="&#x435;" horiz-adv-x="529" d="M469 98 C412 80 340 64 290 64 C199 64 143 84 143 181 L143 224 L491 224 L491 310 C491 452 399 510 267 510 C108 510 40 425 40 282 L40 186 C40 34 146 -10 281 -10 C352 -10 416 4 480 24 L469 98 Z M143 306 C143 402 181 441 267 441 C351 441 396 407 396 320 L396 283 L143 283 L143 306 Z " />
<glyph glyph-name="afii10072" unicode="&#x436;" horiz-adv-x="717" d="M11 500 L212 260 L10 0 L115 0 L300 249 L311 249 L311 0 L408 0 L408 249 L418 249 L599 0 L706 0 L509 260 L707 500 L599 500 L418 271 L408 271 L408 500 L311 500 L311 271 L300 271 L117 500 L11 500 Z " />
<glyph glyph-name="afii10073" unicode="&#x437;" horiz-adv-x="506" d="M40 27 C57 17 128 -9 215 -9 C358 -9 469 23 469 151 C469 250 411 268 351 285 C401 300 430 337 430 390 C430 486 351 510 215 510 C142 510 80 490 46 475 L62 413 C96 428 158 447 201 447 C284 447 328 419 328 375 C328 306 258 299 223 299 L116 299 L116 235 L230 235 C308 235 364 218 364 152 C364 89 310 54 201 54 C138 54 72 85 57 93 L40 27 Z " />
<glyph glyph-name="afii10074" unicode="&#x438;" horiz-adv-x="589" d="M61 500 L61 0 L151 0 L428 376 L428 0 L528 0 L528 500 L438 500 L161 123 L161 500 L61 500 Z " />
<glyph glyph-name="afii10075" unicode="&#x439;" horiz-adv-x="589" d="M91 715 L91 695 C91 597 199 577 295 577 C391 577 499 597 499 695 L499 715 L417 715 C417 679 399 637 295 637 C173 637 173 678 173 711 L173 715 L91 715 Z M61 500 L61 0 L151 0 L428 376 L428 0 L528 0 L528 500 L438 500 L161 123 L161 500 L61 500 Z " />
<glyph glyph-name="afii10076" unicode="&#x43a;" horiz-adv-x="517" d="M161 500 L61 500 L61 0 L161 0 L161 241 L165 241 L388 0 L509 0 L258 261 L509 500 L382 500 L165 280 L161 280 L161 500 Z " />
<glyph glyph-name="afii10077" unicode="&#x43b;" horiz-adv-x="583" d="M159 500 C159 290 137 74 50 74 C38 74 30 75 17 77 L27 0 C39 -4 61 -7 71 -7 C238 -7 245 244 245 434 L422 434 L422 0 L522 0 L522 500 L159 500 Z " />
<glyph glyph-name="afii10078" unicode="&#x43c;" horiz-adv-x="777" d="M182 403 L342 0 L429 0 L595 403 L628 0 L719 0 L673 500 L560 500 L389 72 L217 500 L104 500 L58 0 L150 0 L182 403 Z " />
<glyph glyph-name="afii10079" unicode="&#x43d;" horiz-adv-x="582" d="M421 500 L421 295 L161 295 L161 500 L61 500 L61 0 L161 0 L161 229 L421 229 L421 0 L521 0 L521 500 L421 500 Z " />
<glyph glyph-name="afii10080" unicode="&#x43e;" horiz-adv-x="558" d="M37 197 C37 68 124 -10 278 -10 C431 -10 521 68 521 197 L521 302 C521 431 431 510 278 510 C124 510 37 431 37 302 L37 197 Z M137 318 C137 399 189 442 278 442 C371 442 419 401 419 318 L419 189 C419 105 371 57 278 57 C185 57 137 104 137 189 L137 318 Z " />
<glyph glyph-name="afii10081" unicode="&#x43f;" horiz-adv-x="575" d="M161 0 L161 431 L414 431 L414 0 L514 0 L514 500 L61 500 L61 0 L161 0 Z " />
<glyph glyph-name="afii10082" unicode="&#x440;" horiz-adv-x="566" d="M161 -200 L161 37 C193 20 242 -7 316 -7 C462 -7 525 79 525 250 C525 427 454 512 316 512 C242 512 188 480 161 463 L161 500 L61 500 L61 -200 L161 -200 Z M276 438 C349 438 423 406 423 250 C423 95 351 63 282 62 C229 62 188 83 161 97 L161 403 C186 419 225 438 276 438 L276 438 Z " />
<glyph glyph-name="afii10083" unicode="&#x441;" horiz-adv-x="463" d="M431 98 C383 77 344 63 296 63 C196 63 146 113 146 217 L146 282 C146 385 195 436 296 436 C340 436 397 415 430 401 L446 474 C397 496 329 510 280 510 C135 510 40 427 40 288 L40 211 C40 64 136 -10 280 -10 C353 -10 409 7 446 26 L431 98 Z " />
<glyph glyph-name="afii10084" unicode="&#x442;" horiz-adv-x="482" d="M20 421 L192 421 L192 0 L292 0 L292 421 L462 421 L462 500 L20 500 L20 421 Z " />
<glyph glyph-name="afii10085" unicode="&#x443;" horiz-adv-x="541" d="M9 500 L196 60 C208 24 244 2 270 0 L231 -94 C211 -142 180 -156 140 -156 C110 -156 66 -143 42 -134 L23 -203 C56 -217 107 -230 152 -230 C227 -230 267 -192 294 -145 C316 -107 339 -62 362 5 L531 500 L423 500 L295 61 L120 500 L9 500 Z " />
<glyph glyph-name="afii10086" unicode="&#x444;" horiz-adv-x="797" d="M349 700 L349 488 C331 495 293 510 253 510 C99 510 37 410 37 257 C37 95 99 -10 253 -10 C292 -10 331 3 349 12 L349 -200 L449 -200 L449 12 C466 3 507 -10 545 -10 C698 -10 760 97 760 257 C760 411 699 510 545 510 C507 510 466 496 449 488 L449 700 L349 700 Z M283 56 C190 56 140 120 140 257 C140 368 184 444 283 444 C315 444 332 434 349 426 L349 73 C334 66 309 56 283 56 L283 56 Z M514 444 C609 444 658 373 658 257 C658 124 611 56 514 56 C483 56 461 66 449 73 L449 426 C461 433 482 444 514 444 L514 444 Z " />
<glyph glyph-name="afii10087" unicode="&#x445;" horiz-adv-x="516" d="M125 500 L10 500 L196 262 L10 0 L122 0 L244 202 L391 0 L506 0 L319 242 L506 500 L395 500 L274 298 L125 500 Z " />
<glyph glyph-name="afii10088" unicode="&#x446;" horiz-adv-x="598" d="M61 500 L61 0 L461 0 L461 -160 L551 -160 L561 69 L501 69 L501 500 L401 500 L401 69 L161 69 L161 500 L61 500 Z " />
<glyph glyph-name="afii10089" unicode="&#x447;" horiz-adv-x="542" d="M51 500 L51 356 C51 213 111 159 237 159 C290 159 344 167 381 173 L381 0 L481 0 L481 500 L381 500 L381 241 C352 236 306 228 261 228 C174 228 151 262 151 341 L151 500 L51 500 Z " />
<glyph glyph-name="afii10090" unicode="&#x448;" horiz-adv-x="794" d="M350 500 L350 69 L158 69 L158 500 L61 500 L61 0 L733 0 L733 500 L636 500 L636 69 L444 69 L444 500 L350 500 Z " />
<glyph glyph-name="afii10091" unicode="&#x449;" horiz-adv-x="830" d="M61 0 L693 0 L693 -160 L784 -160 L793 69 L733 69 L733 500 L636 500 L636 69 L444 69 L444 500 L350 500 L350 69 L158 69 L158 500 L61 500 L61 0 Z " />
<glyph glyph-name="afii10092" unicode="&#x44a;" horiz-adv-x="593" d="M17 435 L144 435 L144 0 L342 0 C468 0 552 29 552 163 C552 291 478 319 351 319 L244 319 L244 500 L23 500 L17 435 Z M346 260 C429 260 450 220 450 163 C450 92 427 61 348 61 L244 61 L244 260 L346 260 Z " />
<glyph glyph-name="afii10093" unicode="&#x44b;" horiz-adv-x="716" d="M553 0 L655 0 L655 500 L553 500 L553 0 Z M61 0 L258 0 C384 0 469 29 469 163 C469 291 395 319 267 319 L161 319 L161 500 L61 500 L61 0 Z M263 260 C346 260 367 220 367 163 C367 92 343 61 265 61 L161 61 L161 260 L263 260 Z " />
<glyph glyph-name="afii10094" unicode="&#x44c;" horiz-adv-x="510" d="M61 0 L258 0 C384 0 469 29 469 163 C469 291 395 319 267 319 L161 319 L161 500 L61 500 L61 0 Z M263 260 C346 260 367 220 367 163 C367 92 343 61 265 61 L161 61 L161 260 L263 260 Z " />
<glyph glyph-name="afii10095" unicode="&#x44d;" horiz-adv-x="491" d="M348 205 C348 109 294 55 195 55 C146 55 101 72 53 90 L37 28 C88 6 151 -10 214 -10 C358 -10 451 64 451 211 L451 288 C451 435 359 510 214 510 C153 510 90 494 40 472 L57 409 C101 429 145 445 195 445 C295 445 348 392 348 297 L348 286 L115 286 L115 222 L348 222 L348 205 Z " />
<glyph glyph-name="afii10096" unicode="&#x44e;" horiz-adv-x="793" d="M272 222 L272 198 C272 63 377 -10 512 -10 C657 -10 753 63 753 200 L753 299 C753 436 657 510 512 510 C374 510 271 442 271 319 L271 285 L155 285 L155 500 L61 500 L61 0 L155 0 L155 222 L272 222 Z M372 300 C372 386 424 444 512 444 C602 444 651 386 651 300 L651 194 C651 113 599 55 512 55 C423 55 372 113 372 194 L372 300 Z " />
<glyph glyph-name="afii10097" unicode="&#x44f;" horiz-adv-x="565" d="M245 500 C116 500 44 451 44 333 C44 213 114 185 200 183 L42 0 L157 0 L299 177 L404 177 L404 0 L504 0 L504 500 L245 500 Z M150 333 C150 402 182 434 263 434 L404 434 L404 240 L263 240 C182 240 150 265 150 333 L150 333 Z " />
<glyph glyph-name="afii10071" unicode="&#x451;" horiz-adv-x="529" d="M125 709 L125 577 L228 577 L228 709 L125 709 Z M299 709 L299 577 L402 577 L402 709 L299 709 Z M469 98 C412 80 340 64 290 64 C199 64 143 84 143 181 L143 224 L491 224 L491 310 C491 452 399 510 267 510 C108 510 40 425 40 282 L40 186 C40 34 146 -10 281 -10 C352 -10 416 4 480 24 L469 98 Z M143 306 C143 402 181 441 267 441 C351 441 396 407 396 320 L396 283 L143 283 L143 306 Z " />
<glyph glyph-name="endash" unicode="&#x2013;" horiz-adv-x="656" d="M78 303 L578 303 L578 391 L78 391 L78 303 Z " />
<glyph glyph-name="emdash" unicode="&#x2014;" horiz-adv-x="926" d="M78 303 L848 303 L848 391 L78 391 L78 303 Z " />
<glyph glyph-name="quoteleft" unicode="&#x2018;" horiz-adv-x="271" d="M191 462 L191 596 L147 596 C147 644 165 695 187 732 L148 750 C112 705 71 631 71 544 L71 462 L191 462 Z " />
<glyph glyph-name="quoteright" unicode="&#x2019;" horiz-adv-x="271" d="M75 700 L75 566 L119 566 C119 518 101 467 79 430 L118 412 C154 457 196 531 196 618 L196 700 L75 700 Z " />
<glyph glyph-name="quotesinglbase" unicode="&#x201a;" horiz-adv-x="271" d="M75 134 L75 0 L119 0 C119 -48 101 -99 79 -136 L118 -154 C154 -109 196 -35 196 52 L196 134 L75 134 Z " />
<glyph glyph-name="quotedblleft" unicode="&#x201c;" horiz-adv-x="445" d="M364 462 L364 596 L320 596 C320 644 338 695 360 732 L321 750 C285 705 244 631 244 544 L244 462 L364 462 Z M191 462 L191 596 L147 596 C147 644 165 695 187 732 L148 750 C112 705 71 631 71 544 L71 462 L191 462 Z " />
<glyph glyph-name="quotedblright" unicode="&#x201d;" horiz-adv-x="445" d="M75 700 L75 566 L119 566 C119 518 101 467 79 430 L118 412 C154 457 196 531 196 618 L196 700 L75 700 Z M248 700 L248 566 L292 566 C292 518 274 467 252 430 L291 412 C327 457 369 531 369 618 L369 700 L248 700 Z " />
<glyph glyph-name="quotedblbase" unicode="&#x201e;" horiz-adv-x="445" d="M75 134 L75 0 L119 0 C119 -48 101 -99 79 -136 L118 -154 C154 -109 196 -35 196 52 L196 134 L75 134 Z M248 134 L248 0 L292 0 C292 -48 274 -99 252 -136 L291 -154 C327 -109 369 -35 369 52 L369 134 L248 134 Z " />
<glyph glyph-name="bullet" unicode="&#x2022;" horiz-adv-x="357" d="M78 286 C78 230 104 185 178 185 C252 185 279 230 279 286 C279 341 252 387 178 387 C104 387 78 341 78 286 L78 286 Z " />
<glyph glyph-name="ellipsis" unicode="&#x2026;" horiz-adv-x="662" d="M75 134 L75 0 L196 0 L196 134 L75 134 Z M271 134 L271 0 L391 0 L391 134 L271 134 Z M466 134 L466 0 L587 0 L587 134 L466 134 Z " />
<glyph glyph-name="perthousand" unicode="&#x2030;" horiz-adv-x="1279" d="M702 701 L604 701 L205 0 L305 0 L702 701 Z M677 -10 C779 -10 831 48 831 136 L831 211 C831 301 778 359 677 359 C575 359 523 300 523 211 L523 136 C523 48 574 -10 677 -10 L677 -10 Z M232 710 C131 710 78 651 78 562 L78 487 C78 399 130 341 232 341 C334 341 387 399 387 487 L387 562 C387 651 334 710 232 710 L232 710 Z M162 555 C162 602 180 644 232 644 C287 644 302 597 302 550 L302 496 C302 446 285 406 232 406 C179 406 162 447 162 501 L162 555 Z M677 294 C730 294 746 251 746 204 L746 145 C746 96 730 55 677 55 C625 55 607 94 607 145 L607 194 C607 247 623 294 677 294 L677 294 Z M1047 -10 C1149 -10 1201 48 1201 136 L1201 211 C1201 301 1148 359 1047 359 C945 359 893 300 893 211 L893 136 C893 48 944 -10 1047 -10 L1047 -10 Z M1047 294 C1100 294 1116 251 1116 204 L1116 145 C1116 96 1100 55 1047 55 C995 55 977 94 977 145 L977 194 C977 247 993 294 1047 294 L1047 294 Z " />
<glyph glyph-name="Euro" unicode="&#x20ac;" horiz-adv-x="687" d="M91 389 L131 389 L131 318 L78 318 L91 263 L132 263 L132 243 C132 73 238 -10 404 -10 C485 -10 559 9 609 28 L591 105 C541 86 478 71 418 71 C307 71 237 137 237 243 L237 263 L528 263 L537 318 L237 318 L237 389 L550 389 L560 445 L237 445 L237 458 C237 575 307 629 418 629 C477 629 548 612 587 595 L607 671 C562 690 484 710 404 710 C240 710 132 640 132 458 L132 445 L78 445 L91 389 Z " />
<glyph glyph-name="afii61352" unicode="&#x2116;" horiz-adv-x="1060" d="M514 112 L494 173 L190 700 L78 700 L78 0 L171 0 L171 512 L161 588 L169 588 L189 532 L497 0 L607 0 L607 700 L513 700 L513 194 L523 112 L514 112 Z M684 427 C684 337 735 282 831 282 C927 282 979 337 979 427 L979 461 C979 551 927 607 831 607 C735 607 684 551 684 461 L684 427 Z M764 458 C764 512 781 538 831 538 C882 538 898 512 898 458 L898 430 C898 376 882 351 831 351 C780 351 764 376 764 430 L764 458 Z M682 120 L982 120 L982 195 L682 195 L682 120 Z " />
<glyph glyph-name="trademark" unicode="&#x2122;" horiz-adv-x="891" d="M54 634 L153 634 L153 351 L229 351 L229 634 L329 634 L329 700 L54 700 L54 634 Z M469 589 L563 351 L642 351 L736 589 L758 351 L826 351 L797 700 L713 700 L602 431 L491 700 L408 700 L378 351 L447 351 L469 589 Z " />
</font>
</svg>
